<svg enable-background="new 0 0 512 512" height="512" viewBox="0 0 512 512" width="512" xmlns="http://www.w3.org/2000/svg"><g id="_x35_0_x2C__Bubble_x2C__chat_x2C__message_x2C__text_x2C__communication"><g id="XMLID_15_"><g id="XMLID_16_"><circle id="XMLID_39_" cx="155" cy="55" r="15"/><circle id="XMLID_38_" cx="425.001" cy="464.999" r="15"/><circle id="XMLID_37_" cx="50" cy="100" r="10"/><circle id="XMLID_36_" cx="460" cy="340" r="10"/><circle id="XMLID_35_" cx="330" cy="490" r="10"/><g id="XMLID_31_"><path id="XMLID_32_" d="m295.192 345.962c-19.829 0-35.962-16.133-35.962-35.962s16.133-35.962 35.962-35.962 35.962 16.133 35.962 35.962-16.133 35.962-35.962 35.962zm0-51.924c-8.802 0-15.962 7.16-15.962 15.962s7.16 15.962 15.962 15.962 15.962-7.16 15.962-15.962-7.16-15.962-15.962-15.962z"/></g><g id="XMLID_27_"><path id="XMLID_28_" d="m200 345.962c-19.829 0-35.961-16.133-35.961-35.962s16.132-35.962 35.961-35.962 35.961 16.133 35.961 35.962-16.132 35.962-35.961 35.962zm0-51.924c-8.801 0-15.961 7.16-15.961 15.962s7.16 15.962 15.961 15.962 15.961-7.16 15.961-15.962-7.16-15.962-15.961-15.962z"/></g><g id="XMLID_23_"><path id="XMLID_24_" d="m104.808 345.962c-19.829 0-35.961-16.133-35.961-35.962s16.132-35.962 35.961-35.962 35.961 16.133 35.961 35.962-16.132 35.962-35.961 35.962zm0-51.924c-8.801 0-15.961 7.16-15.961 15.962s7.16 15.962 15.961 15.962 15.961-7.16 15.961-15.962-7.16-15.962-15.961-15.962z"/></g><g id="XMLID_21_"><path id="XMLID_22_" d="m478.9 276.408h-104.227c-5.522 0-10-4.478-10-10s4.478-10 10-10h83.125l-14.154-17.3c-3.322-4.061-2.941-9.999.872-13.602 22.882-21.616 35.484-50.845 35.484-82.302 0-62.421-50.783-113.204-113.204-113.204-59.625 0-109.248 46.567-112.97 106.014-.345 5.512-5.087 9.707-10.605 9.355-5.512-.345-9.701-5.093-9.355-10.605 4.38-69.961 62.77-124.764 132.93-124.764 73.449 0 133.204 59.755 133.204 133.204 0 33.886-12.425 65.572-35.182 90.201l21.821 26.671c2.447 2.99 2.952 7.123 1.298 10.614-1.655 3.493-5.172 5.718-9.037 5.718z"/></g><g id="XMLID_17_"><path id="XMLID_18_" d="m200 500c-.377 0-.752-.006-1.128-.012-.164.008-.328.012-.494.012h-162.162c-3.864 0-7.382-2.226-9.037-5.718-1.655-3.491-1.15-7.624 1.297-10.614l34.449-42.104c-15.485-16.104-27.874-34.591-36.894-55.074-10.637-24.156-16.031-49.89-16.031-76.49 0-104.766 85.234-190 190-190 104.767 0 190 85.234 190 190 0 104.767-85.233 190-190 190zm-1.643-20.021h.089l.75.011c.268.005.535.01.804.01 93.738 0 170-76.262 170-170s-76.262-170-170-170-170 76.262-170 170c0 47.238 18.924 91.132 53.287 123.594 3.814 3.604 4.195 9.541.873 13.602l-26.841 32.804h140.398c.212-.014.426-.021.64-.021z"/></g></g></g></g></svg>