<svg fill="none" height="513" viewBox="0 0 512 513" width="512" xmlns="http://www.w3.org/2000/svg"><g clip-rule="evenodd" fill="rgb(0,0,0)" fill-rule="evenodd"><path d="m80 196.622c8.8366 0 16 7.163 16 16v236h80v-120c0-10.609 4.214-20.783 11.716-28.284 7.501-7.502 17.675-11.716 28.284-11.716h80c10.609 0 20.783 4.214 28.284 11.716 7.502 7.501 11.716 17.675 11.716 28.284v120h80v-236c0-8.837 7.163-16 16-16s16 7.163 16 16v236c0 8.487-3.371 16.626-9.373 22.627-6.001 6.002-14.14 9.373-22.627 9.373h-96c-8.837 0-16-7.163-16-16v-136c0-2.122-.843-4.156-2.343-5.657-1.5-1.5-3.535-2.343-5.657-2.343h-80c-2.122 0-4.157.843-5.657 2.343-1.5 1.501-2.343 3.535-2.343 5.657v136c0 8.837-7.163 16-16 16h-96c-8.4869 0-16.6262-3.371-22.6274-9.373-6.0012-6.001-9.3726-14.14-9.3726-22.627v-236c0-8.837 7.1635-16 16-16z"/><path d="m278.172 41.2725 212.892 203.7915c6.383 6.11 6.605 16.239.494 22.622-6.11 6.383-16.239 6.605-22.622.494l-212.615-203.5265c-.098-.0086-.204-.0138-.316-.014-.116-.0002-.225.0049-.325.0137l-212.616 203.5268c-6.3833 6.111-16.5116 5.889-22.622-.494-6.1105-6.383-5.8893-16.512.4941-22.622l212.9059-203.8047c6.527-6.6169 15.421-8.6319 22.22-8.6197 6.772.0121 15.635 2.0436 22.11 8.6329z"/><path d="m336 64.6221c0-8.8366 7.163-16 16-16h48c8.837 0 16 7.1634 16 16v114.9999c0 8.837-7.163 16-16 16s-16-7.163-16-16v-98.9999h-16v52.9999c0 8.837-7.163 16-16 16s-16-7.163-16-16z"/></g></svg>