<svg id="Line" height="512" viewBox="0 0 64 64" width="512" xmlns="http://www.w3.org/2000/svg"><path d="m12.917 52.583a1.51011 1.51011 0 0 0 1.06048-2.56058c-9.90392-9.50761-9.90365-26.53748.00035-36.04488a1.50012 1.50012 0 0 0 -2.12142-2.121c-11.06799 10.62446-11.06791 29.66274.00035 40.287a1.49385 1.49385 0 0 0 1.06024.43946z"/><path d="m50.02246 11.85645a1.49944 1.49944 0 0 0 0 2.12109c9.904 9.50787 9.90372 26.53734-.00028 36.04491a1.50011 1.50011 0 0 0 2.12142 2.12105c11.068-10.62431 11.0679-29.66295-.00036-40.287a1.49906 1.49906 0 0 0 -2.12078-.00005z"/><path d="m19.2417 19.24219a1.5 1.5 0 0 0 -2.12114-2.121c-8.17525 7.84779-8.17523 21.91015.00028 29.75775a1.4999 1.4999 0 0 0 2.12081-2.12113 18.10563 18.10563 0 0 1 .00005-25.51562z"/><path d="m44.7583 44.75781a1.5 1.5 0 0 0 2.12114 2.121c8.17525-7.84762 8.17523-21.91027-.00028-29.75775a1.49991 1.49991 0 0 0 -2.12081 2.12114 18.10562 18.10562 0 0 1 -.00005 25.51561z"/><path d="m24.50586 22.38477a1.5 1.5 0 0 0 -2.12158 0 13.58584 13.58584 0 0 0 0 19.23046 1.50018 1.50018 0 0 0 2.12207-2.12109 10.63453 10.63453 0 0 1 .00012-14.98828 1.5 1.5 0 0 0 -.00061-2.12109z"/><path d="m39.49414 22.38477a1.49989 1.49989 0 0 0 -.00049 2.12109 10.63453 10.63453 0 0 1 -.00012 14.98828 1.50023 1.50023 0 0 0 2.12219 2.12109 13.65012 13.65012 0 0 0 -.00015-19.23046 1.49985 1.49985 0 0 0 -2.12143 0z"/><path d="m32 25.84473a6.16254 6.16254 0 0 0 -6.15527 6.15527c.28932 8.14648 12.02244 8.14439 12.31055-.0001a6.16253 6.16253 0 0 0 -6.15528-6.15517zm0 9.31054a3.15547 3.15547 0 0 1 .0001-6.31054 3.15547 3.15547 0 0 1 -.0001 6.31054z"/></svg>